<svg xmlns="http://www.w3.org/2000/svg" width="56" height="56"><defs><linearGradient id="a" gradientUnits="userSpaceOnUse" x1="143.947" y1="790.23" x2="143.947" y2="1007.918" gradientTransform="matrix(.99335 0 0 .99556 .5 5.01)"><stop offset="0" style="stop-color:#d7d7d8;stop-opacity:1"/><stop offset="1" style="stop-color:#b5b3b3;stop-opacity:1"/></linearGradient><linearGradient id="b" gradientUnits="userSpaceOnUse" x1="101.268" y1="960.312" x2="108.339" y2="952.231" gradientTransform="matrix(.18667 0 0 .18667 0 -140.44)"><stop offset="0" style="stop-color:#8dbd54;stop-opacity:1"/><stop offset="1" style="stop-color:#91c651;stop-opacity:1"/></linearGradient><linearGradient id="c" gradientUnits="userSpaceOnUse" x1="114.179" y1="837.362" x2="123.571" y2="866.291" gradientTransform="matrix(.18667 0 0 .18667 0 -140.44)"><stop offset="0" style="stop-color:#d27138;stop-opacity:1"/><stop offset="1" style="stop-color:#ff7d34;stop-opacity:1"/></linearGradient><linearGradient id="d" gradientUnits="userSpaceOnUse" x1="75.549" y1="894.148" x2="110" y2="909.862" gradientTransform="matrix(.18667 0 0 .18667 0 -140.44)"><stop offset="0" style="stop-color:#d8a73f;stop-opacity:1"/><stop offset="1" style="stop-color:#febf24;stop-opacity:1"/></linearGradient><radialGradient id="e" gradientUnits="userSpaceOnUse" cx="142.321" cy="935.372" fx="142.321" fy="935.372" r="90.848" gradientTransform="matrix(.22428 .19662 -.22321 .2546 204.976 -237.67)"><stop offset="0" style="stop-color:#000;stop-opacity:1"/><stop offset="1" style="stop-color:#fff;stop-opacity:0"/></radialGradient></defs><path style="stroke:none;fill-rule:nonzero;fill:#fff;fill-opacity:1" d="M22.531 21.586h12.543v13.672H22.531Zm0 0"/><path style="stroke:none;fill-rule:nonzero;fill:#848585;fill-opacity:1" d="M5.254 3.734h7.039c.996 0 1.8.801 1.8 1.801V8H3.454V5.535c0-1 .805-1.8 1.8-1.8Zm0 0"/><path style="fill-rule:nonzero;fill:#e1e2e3;fill-opacity:1;stroke-width:1.988907;stroke-linecap:square;stroke-linejoin:miter;stroke:url(#a);stroke-miterlimit:4" d="M18.415 792.352h263.17c9.626 0 17.41 7.806 17.41 17.432v188.17c0 9.605-7.784 17.41-17.41 17.41H18.415c-9.626 0-17.41-7.805-17.41-17.41v-188.17c0-9.626 7.784-17.432 17.41-17.432Zm0 0" transform="matrix(.18667 0 0 .18667 0 -140.44)"/><path style="stroke:none;fill-rule:nonzero;fill:url(#b)" d="m14.285 33.277 12.711.059 5.942-2.211-6.68 11.723-7.73-.614Zm0 0"/><path style="stroke:none;fill-rule:evenodd;fill:url(#c)" d="m23.066 29.867-6.02-10.426c5.095-5.816 9.466-5.253 12.888-5.175l-6.262 10.847c-1.184 2.028-.938 3.2-.606 4.754Zm0 0"/><path style="stroke:none;fill-rule:evenodd;fill:url(#d)" d="m17.035 19.383 6.035 10.472c.774 1.797 2.14 3.168 4.328 3.543H14.934c-1.508-4.789-1.012-9.578 2.101-14.015Zm0 0"/><path style="stroke:none;fill-rule:evenodd;fill:#df513f;fill-opacity:1" d="M23.633 25.168c.812-.984 1.902-1.547 3.433-1.918l14.036-.285c-3.32-6.324-7.172-7.89-11.192-8.688Zm0 0"/><path style="stroke:none;fill-rule:nonzero;fill:#868787;fill-opacity:1" d="M52.602 13.3a2.7 2.7 0 0 1-5.403 0 2.7 2.7 0 0 1 5.402 0Zm0 0"/><path style="stroke:none;fill-rule:evenodd;fill:#5980c1;fill-opacity:1" d="M28.5 22.96c2.137.423 3.836 1.325 4.465 3.606l6.101 10.301c2.012-3.433 4.09-6.777 2.036-13.933Zm0 0"/><path style="stroke:none;fill-rule:evenodd;fill:#4858a7;fill-opacity:1" d="M39.125 36.766c-2.988 3.445-6.828 5.82-13.008 5.234l5.973-10.352c.71-1.148 1.379-2.335 1.023-4.91Zm0 0"/><path style="stroke:none;fill-rule:nonzero;fill:#fff;fill-opacity:1" d="M27.879 10.777c-9.633 0-17.442 7.82-17.442 17.47 0 9.644 7.81 17.464 17.442 17.464 9.633 0 17.441-7.82 17.441-17.465 0-9.648-7.808-17.469-17.441-17.469Zm.098 3.43c7.71 0 13.96 6.281 13.957 14.027 0 7.746-6.246 14.028-13.957 14.028-7.707 0-13.957-6.282-13.957-14.028s6.25-14.027 13.957-14.027Zm0 0"/><path style="stroke:none;fill-rule:nonzero;fill:#fff;fill-opacity:1" d="M33.332 28.215c0-2.914-2.379-5.281-5.316-5.281-2.934 0-5.317 2.367-5.317 5.28 0 2.919 2.383 5.286 5.317 5.286 2.937 0 5.316-2.367 5.316-5.285Zm0 0"/><path style="stroke:none;fill-rule:evenodd;fill:url(#e)" d="m20.648 44.215 4.57 4.574c22.895.398 26.81.707 29.18-19.754L42.051 17.63c11.855 21.328-10.953 32.766-21.403 26.586Zm0 0"/></svg>