<svg xmlns="http://www.w3.org/2000/svg" width="56" height="px" viewBox="0 0 54 13"><path style="stroke:none;fill-rule:nonzero;fill:#006b33;fill-opacity:1" d="M13.73 6.719V.453h1.93v.414c0 .23.004.414.008.414s.129-.074.273-.164C17.648.035 20.133-.293 22.36.273c2.008.512 3.461 1.72 3.98 3.309.302.93.286 1.965-.046 2.863-.414 1.117-1.262 2.016-2.484 2.63-1.07.538-2.293.808-3.664.808-1.137 0-2.196-.192-3.13-.567a7.485 7.485 0 0 1-1.132-.578l-.223-.148v4.394h-1.93Zm7.348 1.5c1.086-.156 1.93-.504 2.563-1.059a2.964 2.964 0 0 0 .937-1.644 4.26 4.26 0 0 0 0-1.137 3.016 3.016 0 0 0-1.21-1.871 5.405 5.405 0 0 0-1.114-.563c-.942-.32-2.082-.414-3.125-.258-1.813.27-3.04 1.18-3.371 2.5a3.139 3.139 0 0 0 .074 1.762c.438 1.25 1.719 2.082 3.535 2.29.367.038 1.367.03 1.711-.02Zm6.402-1.5V.453h1.934v.414c0 .23.004.414.008.414.008 0 .113-.066.238-.148.29-.192.86-.473 1.223-.61 1.578-.59 3.504-.687 5.191-.257 2.746.699 4.367 2.609 4.215 4.976-.117 1.809-1.309 3.293-3.266 4.074-.636.254-1.289.414-2.109.52-.43.055-1.594.055-2.047 0-1.273-.156-2.394-.54-3.27-1.121l-.183-.121v4.39H27.48ZM34.88 8.21c1.504-.23 2.562-.844 3.121-1.809.324-.558.445-1.304.324-1.996-.25-1.441-1.5-2.437-3.414-2.718-1.262-.188-2.687-.004-3.66.476-.988.492-1.586 1.223-1.79 2.2-.05.253-.05.913 0 1.163a2.94 2.94 0 0 0 .966 1.657c.68.578 1.566.921 2.715 1.054.379.043 1.359.028 1.738-.027ZM5.75 9.87c-1.023-.09-1.898-.297-2.64-.617C1.417 8.524.347 7.289.058 5.734a5.889 5.889 0 0 1-.04-1.289C.228 2.578 1.587 1.102 3.735.402 4.88.032 6.285-.09 7.551.074c2.316.301 4.066 1.387 4.836 2.996.625 1.313.547 2.91-.207 4.133a5.138 5.138 0 0 1-1.473 1.504c-.895.594-1.965.961-3.266 1.125-.261.035-1.449.063-1.691.04Zm1.371-1.633c1.008-.11 1.856-.398 2.492-.855a3.063 3.063 0 0 0 1.121-1.492c.11-.332.13-.489.13-.946 0-.453-.02-.605-.13-.941-.351-1.094-1.386-1.91-2.832-2.23-1.265-.282-2.742-.184-3.836.253-.789.317-1.414.828-1.777 1.461-.39.676-.477 1.59-.23 2.38.27.85.972 1.566 1.937 1.964a6.33 6.33 0 0 0 1.828.426c.25.02 1.04.008 1.297-.02ZM46.97 9.871c-.043-.004-.184-.02-.317-.031-1.066-.102-2.187-.442-3.007-.914-1.114-.637-1.887-1.543-2.239-2.621a4.422 4.422 0 0 1-.117-2.301c.25-1.137.938-2.106 2-2.82C44.695.238 46.758-.18 48.75.074c1.656.211 3.023.824 3.973 1.781a4.307 4.307 0 0 1 1.257 2.59c.032.262.024.793-.011 1.07-.258 1.993-1.824 3.52-4.219 4.114-.727.18-1.184.234-2.04.246-.366.004-.702 0-.741-.004Zm1.27-1.621c1.273-.121 2.312-.547 2.98-1.223.453-.457.715-.96.82-1.57.04-.25.04-.773-.004-1.031-.23-1.403-1.453-2.418-3.262-2.715a6.486 6.486 0 0 0-1.175-.094c-2.032 0-3.606.774-4.211 2.067-.18.386-.262.785-.262 1.261 0 .633.145 1.13.473 1.63.601.913 1.742 1.495 3.25 1.663.312.035 1.074.04 1.39.012Zm0 0"/></svg>