<svg xmlns="http://www.w3.org/2000/svg" width="56" height="px" viewBox="0 0 56 32"><path style="fill:#000;fill-opacity:1;stroke:none" d="M0 0h56v32H0z"/><path style="stroke:none;fill-rule:evenodd;fill:#ffd400;fill-opacity:1" d="M0 0h56v32H0Zm14.191 15.879c-.515 0-.82-.008-.992-.012a.221.221 0 0 1-.215-.222v-2.829c0-.12.094-.218.215-.222.172-.008.477-.012.992-.012 1.262 0 1.97.52 1.97 1.648 0 1.125-.708 1.649-1.97 1.649Zm.61-5.016c-1.602.035-3.88.117-3.88.117a.256.256 0 0 0-.241.25v9.872c0 .152.125.277.277.277h1.75a.278.278 0 0 0 .277-.277v-3.309c0-.125.106-.227.23-.223.247.012.712.024 1.587.024 2.094 0 3.351-1.43 3.351-3.364 0-1.937-1.257-3.41-3.351-3.367Zm8.824 8.895c-1.516 0-1.727-1.465-1.727-3.633 0-2.207.211-3.637 1.727-3.637 1.52 0 1.73 1.496 1.73 3.637 0 2.16-.21 3.633-1.73 3.633Zm0-8.895c-1.328 0-4.05.344-4.05 5.262 0 4.918 2.722 5.258 4.05 5.258 1.328 0 4.05-.34 4.05-5.258s-2.722-5.262-4.05-5.262Zm17.55 8.895c-1.515 0-1.726-1.465-1.726-3.633 0-2.207.211-3.637 1.727-3.637 1.52 0 1.73 1.496 1.73 3.637 0 2.16-.21 3.633-1.73 3.633Zm0-8.895c-1.327 0-4.046.344-4.046 5.262 0 4.918 2.719 5.258 4.047 5.258 1.328 0 4.05-.34 4.05-5.258s-2.722-5.262-4.05-5.262Zm-12.058 5.262c0 2.672.899 5.262 4.266 5.262 1.246 0 2.25-.434 2.629-.621a.208.208 0 0 0 .097-.254l-.43-1.106a.197.197 0 0 0-.238-.12 5.688 5.688 0 0 1-1.496.226c-1.883 0-2.515-1.473-2.515-3.387 0-1.91.633-3.367 2.515-3.367.617 0 1.211.144 1.496.226a.197.197 0 0 0 .239-.12l.43-1.122a.204.204 0 0 0-.098-.254 6.134 6.134 0 0 0-2.63-.62c-3.366 0-4.265 2.585-4.265 5.257Zm0 0"/></svg>