<svg xmlns="http://www.w3.org/2000/svg" width="56" height="px" viewBox="0 0 55 23"><path style="stroke:none;fill-rule:nonzero;fill:#ffc915;fill-opacity:1" d="M0 0h55.027v22.965H0Zm0 0"/><path style="stroke:none;fill-rule:nonzero;fill:#676c73;fill-opacity:1" d="M22.281 16.492c-.863-.097-1.566-.418-2.125-.972-.695-.684-1.066-1.606-1.066-2.657 0-2.117 1.523-3.668 3.594-3.664.546 0 1.09.13 1.574.367.226.118.523.313.676.454a.661.661 0 0 0 .12.097c.005 0 .012-.18.012-.398V9.32h.899v7.086h-.899v-.82l-.082.066c-.601.5-1.148.743-1.875.832-.16.02-.683.028-.828.008Zm.828-.937c1.086-.18 1.836-.95 2.051-2.09.05-.266.05-.934.004-1.195a2.894 2.894 0 0 0-.262-.797c-.37-.758-1.03-1.223-1.906-1.336a3.062 3.062 0 0 0-1.035.058c-.848.22-1.5.832-1.797 1.688-.121.355-.144.52-.144.98 0 .352.003.438.046.621.247 1.098 1.032 1.883 2.082 2.07.22.04.727.04.961 0Zm-8.652.91a3.574 3.574 0 0 1-1.629-.574 3.835 3.835 0 0 1-.86-.864c-.44-.668-.652-1.464-.62-2.347.027-.805.25-1.489.683-2.106.063-.086.223-.273.36-.406a3.321 3.321 0 0 1 1.757-.93 5.33 5.33 0 0 1 1.2-.043c1.347.172 2.355 1.075 2.703 2.418.082.328.12.61.137 1.008l.011.356H12.25l.016.207c.058.93.597 1.765 1.402 2.171.383.192.746.278 1.203.278.781 0 1.375-.242 1.867-.766.121-.129.399-.504.45-.601.003-.012.78.496.78.511 0 .051-.32.473-.491.657-.649.68-1.454 1.015-2.497 1.043-.19.003-.425 0-.523-.012Zm2.809-4.371c-.168-1.067-.895-1.836-1.918-2.04a3.64 3.64 0 0 0-.989.008c-.515.11-.945.333-1.304.676-.38.364-.63.82-.766 1.383l-.012.059h5Zm26.984 4.37c-1.563-.148-2.727-1.206-3.04-2.776-.214-1.067-.015-2.18.536-3 .527-.79 1.281-1.278 2.254-1.461.273-.055 1.09-.055 1.348 0a3.085 3.085 0 0 1 1.632.859c.645.644.989 1.55.989 2.613v.278l-5.922.007.004.164c.023.645.324 1.317.8 1.774.372.36.82.586 1.344.676.23.043.73.043.965 0 .723-.125 1.25-.485 1.7-1.153.062-.097.12-.172.132-.168.024.004.719.453.746.48.035.032-.156.321-.383.579-.714.832-1.851 1.246-3.105 1.129Zm2.8-4.343c0-.031-.015-.129-.038-.219-.246-1.023-.965-1.707-1.969-1.859a2.73 2.73 0 0 0-1.223.11 2.607 2.607 0 0 0-1.703 1.824 1.853 1.853 0 0 0-.043.18c0 .015.719.023 2.489.023h2.488Zm-39.991.73v-3.55H11.3v.836l-1.668.004-1.668.007-.004 3.13-.008 3.128H7.06Zm20.476-1.43v-4.96h.918v9.922h-.918Zm2.488 1.423V9.3h.895l.004.465v.464l.074-.093c.25-.301.508-.516.797-.66.348-.176.652-.25 1.086-.27.496-.023.902.05 1.293.246.418.203.719.5 1 .98.02.036.031.024.105-.081.387-.567.961-.942 1.68-1.094.285-.063.91-.07 1.188-.012.503.102.902.305 1.23.637.352.347.566.77.695 1.363l.055.25.008 2.441.008 2.446h-.899v-2.18c0-1.363-.008-2.262-.023-2.394-.082-.84-.516-1.446-1.196-1.672a1.939 1.939 0 0 0-.824-.082c-.875.093-1.437.566-1.636 1.367-.04.172-.043.223-.047 2.57l-.008 2.39h-.899v-2.14a80.69 80.69 0 0 0-.02-2.398c-.081-1.028-.648-1.68-1.55-1.79-.82-.1-1.676.38-1.984 1.118-.13.308-.121.148-.13 2.797l-.007 2.414h-.895Zm0 0"/></svg>