<svg xmlns="http://www.w3.org/2000/svg" width="56" height="px" viewBox="0 0 57 19"><path style="stroke:none;fill-rule:nonzero;fill:#034ea2;fill-opacity:1" d="M56.96 4.523c.774 4.47-11.335 10.32-27.058 13.067C14.187 20.34.816 18.945.04 14.477-.734 10.007 11.38 4.16 27.098 1.41 42.816-1.34 56.184.055 56.96 4.523Zm0 0"/><path style="stroke:none;fill-rule:nonzero;fill:#fff;fill-opacity:1" d="m42.164 11.156-.078-4.644h1.457v5.855h-2.098l-1.453-4.805h-.031l.078 4.805h-1.45V6.512h2.188l1.356 4.644ZM15.648 7.059l-.804 5.367H13.25l1.094-5.914h2.62l1.09 5.914H16.47l-.785-5.367ZM22.52 11.035l.73-4.523h2.402l.125 5.914h-1.472l-.035-5.317h-.032l-.984 5.317h-1.496l-.988-5.317h-.032l-.035 5.317h-1.476l.132-5.914h2.403l.726 4.523ZM10.77 10.758a.768.768 0 0 1 .015.437c-.05.2-.183.399-.574.399-.371 0-.594-.211-.594-.535v-.575H8.035v.457c0 1.32 1.035 1.72 2.14 1.72 1.067 0 1.946-.368 2.083-1.352.074-.512.02-.848-.004-.973-.25-1.238-2.484-1.61-2.652-2.3a.766.766 0 0 1-.004-.313c.039-.188.168-.395.535-.395.344 0 .55.211.55.535v.367h1.47v-.418c0-1.289-1.153-1.488-1.989-1.488-1.047 0-1.902.348-2.059 1.309-.043.265-.05.504.012.8.258 1.208 2.348 1.56 2.653 2.325ZM29.93 10.746c.058.145.039.324.011.434-.046.195-.18.394-.566.394-.363 0-.586-.215-.586-.531l-.004-.566h-1.562l-.004.453c0 1.304 1.027 1.699 2.12 1.699 1.056 0 1.927-.363 2.063-1.34.07-.508.02-.836-.004-.96-.246-1.227-2.46-1.595-2.625-2.278a.758.758 0 0 1-.007-.309c.043-.191.168-.39.535-.39.34 0 .539.207.539.527v.363h1.457v-.41c0-1.277-1.14-1.477-1.969-1.477-1.035 0-1.883.344-2.039 1.301a2 2 0 0 0 .016.79c.254 1.195 2.324 1.542 2.625 2.3ZM34.879 11.543c.41 0 .535-.285.562-.43.012-.062.016-.148.016-.226v-4.38h1.488v4.247c.004.105-.004.332-.011.387-.106 1.105-.973 1.46-2.055 1.46-1.086 0-1.957-.355-2.059-1.46a8.309 8.309 0 0 1-.015-.387V6.508h1.492v4.379c0 .074 0 .164.012.226a.54.54 0 0 0 .57.43ZM47.172 11.48c.426 0 .574-.273.601-.43.012-.066.016-.148.012-.222v-.86h-.601v-.863h2.09v1.586c-.004.114-.004.196-.024.391-.098 1.078-1.027 1.461-2.07 1.461-1.047 0-1.977-.383-2.075-1.461a7.337 7.337 0 0 1-.023-.39l.004-2.489c0-.105.012-.293.023-.39.13-1.106 1.024-1.465 2.07-1.465 1.044 0 1.962.355 2.067 1.465.02.187.016.39.016.39v.195h-1.489v-.332c.004.004 0-.14-.015-.222-.028-.133-.14-.434-.59-.434-.43 0-.555.285-.586.434-.02.078-.023.183-.023.277v2.707c-.004.074 0 .156.011.227.028.152.172.425.602.425Zm0 0"/></svg>