<?xml version="1.0" standalone="yes"?>
<svg xmlns="http://www.w3.org/2000/svg" width="56" height="56">
<path style="fill:#f8f8f9; stroke:none;" d="M0 0L0 56L56 56L56 0L0 0z"/>
<path style="fill:#32abdf; stroke:none;" d="M17 7L17 14L32 14L32 7L28 7C26.6233 -1.24834 21.1325 4.63645 17 7z"/>
<path style="fill:#f8f8f9; stroke:none;" d="M22 7L26 4L22 7z"/>
<path style="fill:#9ed9f0; stroke:none;" d="M28.3333 5.66667L28.6667 6.33333L28.3333 5.66667z"/>
<path style="fill:#555555; stroke:none;" d="M6 8L6 54L43 54L49.8364 39L43.5995 27.8156L43 8L34 8L34 11L40 11L39.3974 27.7909L33.1528 38.9992L40 51L8 51L8 11L15 11L15 8L6 8z"/>
<path style="fill:#a3a3a3; stroke:none;" d="M8 11L8 51L9 51C9 39.566 12.411 21.512 8 11z"/>
<path style="fill:#9ed9f0; stroke:none;" d="M17 14L17 15L32 15L17 14z"/>
<path style="fill:#32abdf; stroke:none;" d="M14 19L14 24L18 24L18 19L14 19z"/>
<path style="fill:#9ed9f0; stroke:none;" d="M18 19L18 24L19 24L18 19z"/>
<path style="fill:#555555; stroke:none;" d="M22 21L22 23L34 23L34 21L22 21z"/>
<path style="fill:#32abdf; stroke:none;" d="M14 29L14 34L18 34L18 29L14 29z"/>
<path style="fill:#9ed9f0; stroke:none;" d="M18 29L18 34L19 34L18 29z"/>
<path style="fill:#555555; stroke:none;" d="M22 31L22 33L32 33L32 31L22 31z"/>
<path style="fill:#a3a3a3; stroke:none;" d="M46 31L47 32L46 31M41 32L42 33L41 32z"/>
<path style="fill:#f8f8f9; stroke:none;" d="M38.2292 34.0285C32.3417 37.6091 37.9765 46.8279 43.8519 43.777C50.3935 40.3801 44.915 29.9625 38.2292 34.0285z"/>
<path style="fill:#a3a3a3; stroke:none;" d="M48 33L49 34L48 33z"/>
<path style="fill:#9ed9f0; stroke:none;" d="M33 34L34 35L33 34M46 35L47 36L46 35M43 36L38 38L38 39L43 36z"/>
<path style="fill:#32abdf; stroke:none;" d="M44 36L37 38C39.3786 42.149 44.1031 40.7888 44 36z"/>
<path style="fill:#a3a3a3; stroke:none;" d="M32 38L33 39L32 38M47 38L48 39L47 38z"/>
<path style="fill:#32abdf; stroke:none;" d="M14 39L14 44L18 44L18 39L14 39z"/>
<path style="fill:#9ed9f0; stroke:none;" d="M18 39L18 44L19 44L18 39z"/>
<path style="fill:#a3a3a3; stroke:none;" d="M35 40L36 41L35 40z"/>
<path style="fill:#555555; stroke:none;" d="M22 41L22 42L31 42L22 41z"/>
<path style="fill:#a3a3a3; stroke:none;" d="M22 42L22 43L31 43L22 42M33 42L34 43L33 42M37 46L38 47L37 46z"/>
</svg>
