<svg xmlns="http://www.w3.org/2000/svg" width="56" height="px" viewBox="0 0 56 20"><path style="stroke:none;fill-rule:nonzero;fill:#00bfff;fill-opacity:1" d="M19.605 3.66c-.187.074-1.25 1.235-1.25 1.36 0 .082.23.367.606.746.793.816.781.816 1.59 0 .375-.38.605-.664.605-.743 0-.16-1.133-1.332-1.324-1.37a.433.433 0 0 0-.227.007ZM41.316 7.344c-.156.05-.367.133-.48.18a.942.942 0 0 1-.281.081c-.043 0-.203.086-.36.188-.156.102-.304.187-.336.187-.066 0-.41.282-.8.668-.305.293-.98 1.207-.98 1.329 0 .023-.075.21-.161.41-.441.992-.434 2.922 0 3.91.086.2.16.387.16.418 0 .105.613.953.91 1.258.282.285.985.859 1.051.859.02 0 .207.082.426.184.926.422.758.41 4.738.41 3.281 0 3.637-.012 3.89-.106.157-.062.325-.113.372-.113.133 0 .836-.363 1.254-.637.191-.129.496-.386.683-.578.348-.355.926-1.183.926-1.328 0-.043.031-.144.074-.219.23-.41.418-1.328.426-2.062 0-.508-.125-1.465-.219-1.692-.043-.105-.125-.293-.18-.421a1.414 1.414 0 0 1-.1-.29c0-.199-1.138-1.625-1.294-1.625-.031 0-.094-.046-.137-.093-.113-.137-.941-.63-1.12-.668a6.986 6.986 0 0 1-.798-.274c-.316-.136-7.265-.113-7.664.024Zm7.508 1.746c.176.062.356.144.406.18.043.039.145.09.223.113.2.055 1.008.828 1.113 1.058.051.102.157.301.239.438.086.137.156.332.156.437 0 .098.043.375.098.606.09.355.093.476.03.746-.042.18-.097.473-.128.656-.063.403-.367.953-.742 1.344-.324.344-.957.793-1.114.793-.062 0-.16.039-.23.082-.281.187-.938.23-3.707.23-2.168 0-2.855-.02-3.191-.085-.239-.051-.461-.126-.493-.157a.332.332 0 0 0-.199-.07c-.074 0-.254-.086-.394-.188-.141-.105-.286-.187-.317-.187-.031 0-.21-.168-.398-.371-.356-.395-.727-1.024-.727-1.223 0-.07-.043-.23-.094-.367-.05-.145-.085-.477-.085-.781 0-.305.035-.637.085-.778.051-.14.094-.308.094-.37 0-.141.317-.723.57-1.051.176-.22.72-.66 1.04-.844.082-.051.308-.137.5-.2.324-.105.609-.117 3.644-.117 3.031-.007 3.332 0 3.621.106ZM2.594 7.54c-.293.19-.387.37-.387.784 0 .336.031.41.25.735.137.199.281.41.313.468.035.055.136.203.234.328.094.125.168.25.168.278 0 .023.09.148.187.277.106.133.188.258.188.281 0 .028.086.149.187.282.106.129.188.254.188.28 0 .024.074.138.172.25.164.192.293.392.523.798.055.105.13.207.16.222.043.032.383.512.637.91.05.083.262.395.465.688.207.3.418.606.469.688 1.343 2.062 1.816 2.468 3.195 2.703.363.062 1.11-.086 1.531-.313.305-.16 1.309-1.14 1.309-1.277 0-.043.082-.18.187-.293.098-.117.184-.234.184-.262 0-.031.078-.148.168-.273.101-.125.574-.828 1.066-1.567.492-.734.922-1.351.953-1.359.028-.012.055-.047.055-.074 0-.031.129-.242.293-.48.461-.665.914-1.333 1.012-1.489.05-.082.281-.418.512-.754.484-.71.558-.984.398-1.422a.744.744 0 0 0-.324-.398c-.282-.168-.739-.176-.977-.012-.176.11-.558.602-.765.973-.055.097-.125.199-.145.215-.016.02-.059.078-.098.14-.03.055-.23.34-.437.64-.203.294-.395.587-.434.641a3.93 3.93 0 0 1-.23.332c-.098.125-.176.25-.176.274 0 .027-.074.148-.168.273-.098.125-.2.27-.234.325-.262.418-.536.793-.618.863-.054.043-.097.11-.097.14 0 .04-.09.168-.188.301-.105.13-.187.254-.187.281 0 .024-.082.149-.188.282-.097.129-.183.254-.183.273 0 .02-.121.203-.262.406-.152.204-.367.516-.488.692-.457.691-.903 1.058-1.262 1.058-.336 0-.695-.253-1.078-.773-.348-.469-1.156-1.652-1.297-1.895a3.387 3.387 0 0 0-.219-.324 6.05 6.05 0 0 1-.218-.324c-.032-.055-.231-.348-.434-.64a32.17 32.17 0 0 1-.469-.68c-.05-.09-.23-.356-.402-.614-.168-.25-.324-.48-.336-.515a6.905 6.905 0 0 0-.352-.5c-.37-.516-1.03-1.485-1.113-1.64-.156-.298-.906-.43-1.238-.204ZM19.266 7.54c-.094.062-.23.198-.293.292-.114.172-.121.371-.121 4.617 0 4.11.007 4.453.113 4.625.113.215.535.446.789.446.23 0 .535-.145.719-.344l.152-.168.02-4.465c.02-4.969.039-4.73-.391-5-.262-.16-.746-.168-.988-.004ZM22.629 7.54c-.453.296-.55.913-.23 1.362.105.145.187.282.187.301 0 .016.086.14.187.274.106.128.188.253.188.273 0 .031.46.691.613.887.028.031.09.129.133.218.043.079.098.16.125.18.031.024.414.578.59.856.039.054.207.308.387.57.171.262.652.96 1.058 1.555.403.597.778 1.144.824 1.226 1.004 1.54 1.528 1.985 2.618 2.215.425.094.507.094.96 0a4.5 4.5 0 0 0 .794-.242c.328-.164 1.292-1.067 1.292-1.219 0-.016.086-.156.188-.297.105-.152.434-.636.734-1.078.305-.45.778-1.148 1.059-1.559.277-.414.547-.8.59-.867a8.1 8.1 0 0 1 .34-.48c.144-.207.261-.38.261-.399 0-.03.383-.597.438-.656a37.6 37.6 0 0 0 .84-1.234c.035-.055.136-.207.23-.328.41-.543.367-1.243-.082-1.528-.316-.203-.758-.207-1.031-.015-.113.082-.473.55-.805 1.047-.328.5-.746 1.113-.918 1.367-.176.254-.363.523-.414.605-.445.68-1.344 1.969-1.41 2.028-.043.035-.082.09-.082.117 0 .031-.148.261-.324.523-.18.262-.356.531-.39.586a3.387 3.387 0 0 1-.22.324c-.086.118-.18.262-.218.317-.442.722-.961 1.18-1.36 1.18-.23 0-.68-.25-.886-.5a7.87 7.87 0 0 1-.497-.684l-.605-.89c-.16-.24-.29-.446-.29-.466 0-.015-.081-.136-.183-.261-.093-.125-.465-.66-.824-1.188a276.29 276.29 0 0 0-1.836-2.695c-.183-.27-.332-.5-.332-.516 0-.082-.59-.824-.734-.918-.23-.148-.735-.148-.965.008Zm0 0"/></svg>