<svg xmlns="http://www.w3.org/2000/svg" width="56" height="px" viewBox="0 0 56 55"><path style="stroke:none;fill-rule:nonzero;fill:#ff6900;fill-opacity:1" d="M50.14 5.746C44.86.578 37.267 0 27.985 0c-9.289 0-16.89.586-22.172 5.766C.535 10.946 0 18.402 0 27.516c0 9.113.535 16.578 5.813 21.757 5.28 5.18 12.882 5.704 22.171 5.704 9.293 0 16.891-.524 22.172-5.704 5.282-5.18 5.817-12.636 5.817-21.757.004-9.125-.54-16.594-5.832-21.77Zm0 0"/><path style="stroke:none;fill-rule:evenodd;fill:#fff;fill-opacity:1" d="M24.563 16.352H11.444c-.52 0-.972.433-.972.949V37.68c0 .511.453.945.972.945h4.543c.52 0 .977-.418.977-.945V22.648s-.02-.39.144-.554c.16-.153.528-.137.528-.137h7.277c1.578.035 2.988.285 3.582.871.7.684.899 2.442.902 4.27v10.574c0 .527.461.95.98.95h4.669c.289 0 .496-.009.703-.204a.5.5 0 0 0 .129-.27c.023-.12.02-.242.02-.242V27.484c0-3.39-.06-7.039-2.114-9.062-2.055-2.02-5.773-2.07-9.222-2.07Zm15.167 0c-.523 0-.972.421-.972.949v20.37c0 .517.453.95.972.95h4.852c.29 0 .438-.062.57-.215.114-.129.106-.5.106-.5V17.301c0-.543-.453-.95-.977-.95Zm-18.925 8.113c-.52 0-.98.422-.98.95v12.257c0 .527.46.95.98.95h4.77c.527 0 .972-.423.972-.95V25.414c0-.527-.445-.95-.973-.95Zm0 0"/></svg>