<svg xmlns="http://www.w3.org/2000/svg" width="56" height="px" viewBox="0 0 56 56"><path style="stroke:none;fill-rule:nonzero;fill:#e2e5e7;fill-opacity:1" d="M14 0a3.51 3.51 0 0 0-3.5 3.5v49A3.51 3.51 0 0 0 14 56h35a3.51 3.51 0 0 0 3.5-3.5V14l-14-14Zm0 0"/><path style="stroke:none;fill-rule:nonzero;fill:#b0b7bd;fill-opacity:1" d="M42 14h10.5l-14-14v10.5A3.51 3.51 0 0 0 42 14Zm0 0"/><path style="stroke:none;fill-rule:nonzero;fill:#cad1d8;fill-opacity:1" d="M52.5 24.5 42 14h10.5Zm0 0"/><path style="stroke:none;fill-rule:nonzero;fill:#50bee8;fill-opacity:1" d="M45.5 45.5c0 .96-.79 1.75-1.75 1.75H5.25c-.96 0-1.75-.79-1.75-1.75V28c0-.96.79-1.75 1.75-1.75h38.5c.96 0 1.75.79 1.75 1.75Zm0 0"/><path style="stroke:none;fill-rule:nonzero;fill:#fff;fill-opacity:1" d="m14.36 35.676 2.433-3.051c.727-.95 2.14.266 1.348 1.176a83.803 83.803 0 0 0-2.563 3.176l2.856 3.554c.765 1.047-.77 2.059-1.528 1.02l-2.574-3.301-2.531 3.371c-.715 1.02-2.297-.125-1.496-1.078l2.812-3.566c-.883-1.106-1.738-2.18-2.59-3.176-.882-1.051.758-2.125 1.399-1.145ZM22.012 35.86v5.175c0 .617-.504.965-1.004.965-.45 0-.84-.348-.84-.965v-7.879c0-.726.617-.965.84-.965.402 0 .64.239.879.504l3.082 4.157 3.187-4.313c.465-.57 1.594-.348 1.594.617v7.88c0 .616-.39.964-.836.964-.504 0-.898-.348-.898-.965V35.86l-2.32 2.938c-.505.617-1.134.617-1.598 0ZM32.188 33.156c0-.46.39-.851.882-.851.45 0 .825.39.825.851v7.012h3.808c1.367 0 1.399 1.832 0 1.832H33.07c-.488 0-.879-.348-.879-.855v-7.989Zm0 0"/><path style="stroke:none;fill-rule:nonzero;fill:#cad1d8;fill-opacity:1" d="M43.75 47.25H10.5V49h33.25c.96 0 1.75-.79 1.75-1.75V45.5c0 .96-.79 1.75-1.75 1.75Zm0 0"/></svg>